{
  "accessors": [
    {
      "bufferView": 3,
      "componentType": 5126,
      "count": 203,
      "max": [
        0.07135489583015442,
        0.041952118277549744,
        0.003950902726501226
      ],
      "min": [
        -0.07135489583015442,
        -0.04362305998802185,
        -0.00478920666500926
      ],
      "type": "VEC3"
    },
    {
      "bufferView": 3,
      "byteOffset": 2436,
      "componentType": 5126,
      "count": 203,
      "max": [
        0.9990618228912354,
        1.0,
        1.0
      ],
      "min": [
        -0.9990617632865906,
        -1.0,
        -1.0
      ],
      "type": "VEC3"
    },
    {
      "bufferView": 2,
      "componentType": 5126,
      "count": 203,
      "max": [
        0.9390701651573181,
        0.9826952219009399
      ],
      "min": [
        0.00875556468963623,
        0.005782961845397949
      ],
      "type": "VEC2"
    },
    {
      "bufferView": 1,
      "componentType": 5125,
      "count": 840,
      "type": "SCALAR"
    },
    {
      "bufferView": 5,
      "componentType": 5126,
      "count": 4,
      "max": [
        1.0,
        0.9866381883621216,
        2.2262613086354577e-08,
        0.0,
        0.9866381287574768,
        1.0,
        0.0,
        0.0,
        3.911532786560201e-08,
        0.0,
        1.0,
        0.0,
        0.0008413610048592091,
        0.0,
        0.0,
        1.0
      ],
      "min": [
        0.1629272997379303,
        -0.9866381883621216,
        -2.2262613086354577e-08,
        0.0,
        -0.9866381287574768,
        0.1629272997379303,
        -3.596874975642095e-08,
        0.0,
        -3.911532786560201e-08,
        -1.6104852562648375e-08,
        1.0,
        0.0,
        -0.0008413610048592091,
        -0.0036960130091756582,
        -6.180850276038541e-11,
        1.0
      ],
      "type": "MAT4"
    },
    {
      "bufferView": 0,
      "componentType": 5123,
      "count": 203,
      "type": "VEC4"
    },
    {
      "bufferView": 4,
      "componentType": 5126,
      "count": 203,
      "max": [
        1.0,
        0.0,
        0.0,
        0.0
      ],
      "min": [
        1.0,
        0.0,
        0.0,
        0.0
      ],
      "type": "VEC4"
    },
    {
      "bufferView": 6,
      "componentType": 5126,
      "count": 14,
      "max": [
        0.2916666567325592
      ],
      "min": [
        0.0
      ],
      "type": "SCALAR"
    },
    {
      "bufferView": 7,
      "componentType": 5126,
      "count": 14,
      "max": [
        0.2002173811197281,
        0.32186615467071533,
        -0.5864868760108948,
        0.7611398696899414
      ],
      "min": [
        -0.2730741798877716,
        -0.23599138855934143,
        -0.6483206152915955,
        0.6912783980369568
      ],
      "type": "VEC4"
    },
    {
      "bufferView": 6,
      "byteOffset": 56,
      "componentType": 5126,
      "count": 14,
      "max": [
        0.2916666567325592
      ],
      "min": [
        0.0
      ],
      "type": "SCALAR"
    },
    {
      "bufferView": 7,
      "byteOffset": 224,
      "componentType": 5126,
      "count": 14,
      "max": [
        0.20021742582321167,
        0.235991433262825,
        0.6490505337715149,
        0.7602599263191223
      ],
      "min": [
        -0.3029021918773651,
        -0.3570237457752228,
        0.5716525912284851,
        0.6737934350967407
      ],
      "type": "VEC4"
    }
  ],
  "animations": [
    {
      "channels": [
        {
          "sampler": 0,
          "target": {
            "node": 10,
            "path": "rotation"
          }
        },
        {
          "sampler": 1,
          "target": {
            "node": 11,
            "path": "rotation"
          }
        }
      ],
      "name": "Butterfly_Flying",
      "samplers": [
        {
          "input": 7,
          "interpolation": "LINEAR",
          "output": 8
        },
        {
          "input": 9,
          "interpolation": "LINEAR",
          "output": 10
        }
      ]
    }
  ],
  "asset": {
    "extras": {
      "author": "SR_Spark (https://sketchfab.com/SR_Spark)",
      "license": "CC-BY-4.0 (http://creativecommons.org/licenses/by/4.0/)",
      "source": "https://sketchfab.com/3d-models/butterflies-poster-2-444a930949e44c3abaa085fbb5a63e0c",
      "title": "Butterflies - Poster 2"
    },
    "generator": "Sketchfab-14.27.0",
    "version": "2.0"
  },
  "bufferViews": [
    {
      "buffer": 0,
      "byteLength": 1624,
      "byteStride": 8,
      "name": "shortBufferViews",
      "target": 34962
    },
    {
      "buffer": 0,
      "byteLength": 3360,
      "byteOffset": 1624,
      "name": "floatBufferViews",
      "target": 34963
    },
    {
      "buffer": 0,
      "byteLength": 1624,
      "byteOffset": 4984,
      "byteStride": 8,
      "name": "floatBufferViews",
      "target": 34962
    },
    {
      "buffer": 0,
      "byteLength": 4872,
      "byteOffset": 6608,
      "byteStride": 12,
      "name": "floatBufferViews",
      "target": 34962
    },
    {
      "buffer": 0,
      "byteLength": 3248,
      "byteOffset": 11480,
      "byteStride": 16,
      "name": "floatBufferViews",
      "target": 34962
    },
    {
      "buffer": 0,
      "byteLength": 256,
      "byteOffset": 14728,
      "name": "floatBufferViews"
    },
    {
      "buffer": 0,
      "byteLength": 112,
      "byteOffset": 14984,
      "name": "floatBufferViews"
    },
    {
      "buffer": 0,
      "byteLength": 448,
      "byteOffset": 15096,
      "byteStride": 16,
      "name": "floatBufferViews"
    }
  ],
  "buffers": [
    {
      "byteLength": 15544,
      "uri": "scene.bin"
    }
  ],
  "images": [
    {
      "uri": "textures/Butterfly_baseColor.png"
    }
  ],
  "materials": [
    {
      "doubleSided": true,
      "name": "Butterfly",
      "pbrMetallicRoughness": {
        "baseColorTexture": {
          "index": 0
        },
        "metallicFactor": 0.0,
        "roughnessFactor": 0.8211145618000169
      }
    }
  ],
  "meshes": [
    {
      "name": "Butterfly.mesh_Butterfly_0",
      "primitives": [
        {
          "attributes": {
            "JOINTS_0": 5,
            "NORMAL": 1,
            "POSITION": 0,
            "TEXCOORD_0": 2,
            "WEIGHTS_0": 6
          },
          "indices": 3,
          "material": 0,
          "mode": 4
        }
      ]
    }
  ],
  "nodes": [
    {
      "children": [
        1
      ],
      "matrix": [
        1.0,
        0.0,
        0.0,
        0.0,
        0.0,
        2.220446049250313e-16,
        -1.0,
        0.0,
        0.0,
        1.0,
        2.220446049250313e-16,
        0.0,
        0.0,
        0.0,
        0.0,
        1.0
      ],
      "name": "Sketchfab_model"
    },
    {
      "children": [
        2
      ],
      "matrix": [
        1.0,
        0.0,
        0.0,
        0.0,
        0.0,
        0.0,
        1.0,
        0.0,
        0.0,
        -1.0,
        0.0,
        0.0,
        0.0,
        0.0,
        0.0,
        1.0
      ],
      "name": "Butterfly.fbx"
    },
    {
      "children": [
        3
      ],
      "name": "Object_2"
    },
    {
      "children": [
        4,
        5
      ],
      "name": "RootNode"
    },
    {
      "name": "Butterfly.mesh"
    },
    {
      "children": [
        6
      ],
      "name": "Butterfly",
      "rotation": [
        -0.7071068286895752,
        0.0,
        0.0,
        0.7071067094802856
      ]
    },
    {
      "children": [
        7,
        8
      ],
      "name": "Object_6"
    },
    {
      "children": [
        9
      ],
      "name": "_rootJoint"
    },
    {
      "mesh": 0,
      "name": "Object_8",
      "skin": 0
    },
    {
      "children": [
        10,
        11
      ],
      "name": "root_00",
      "rotation": [
        0.7071068286895752,
        0.0,
        0.0,
        0.7071067094802856
      ]
    },
    {
      "name": "Wing.L_01",
      "rotation": [
        -0.2730741500854492,
        0.32186615467071533,
        -0.5864869356155396,
        0.691278338432312
      ],
      "scale": [
        0.9999998211860657,
        1.0,
        0.9999999403953552
      ],
      "translation": [
        0.00378370750695467,
        -0.0002279374748468399,
        -3.062533560083125e-11
      ]
    },
    {
      "name": "Wing.R_02",
      "rotation": [
        -0.3029021918773651,
        -0.35702377557754517,
        0.5716525912284851,
        0.6737934350967407
      ],
      "scale": [
        0.9999998807907104,
        0.9999999403953552,
        1.0
      ],
      "translation": [
        -0.00378370750695467,
        -0.0002279374748468399,
        -3.062533560083125e-11
      ]
    }
  ],
  "samplers": [
    {
      "magFilter": 9729,
      "minFilter": 9987,
      "wrapS": 10497,
      "wrapT": 10497
    }
  ],
  "scene": 0,
  "scenes": [
    {
      "name": "Sketchfab_Scene",
      "nodes": [
        0
      ]
    }
  ],
  "skins": [
    {
      "inverseBindMatrices": 4,
      "joints": [
        7,
        9,
        10,
        11
      ],
      "skeleton": 7
    }
  ],
  "textures": [
    {
      "sampler": 0,
      "source": 0
    }
  ]
}
