{
  "accessors": [
    {
      "bufferView": 2,
      "componentType": 5126,
      "count": 1250,
      "max": [
        17.559520721435547,
        3.761889934539795,
        4.260560035705566
      ],
      "min": [
        -7.355519771575928,
        -3.092050075531006,
        -4.260560035705566
      ],
      "type": "VEC3"
    },
    {
      "bufferView": 2,
      "byteOffset": 15000,
      "componentType": 5126,
      "count": 1250,
      "max": [
        0.9750528931617737,
        1.0,
        0.999941885471344
      ],
      "min": [
        -0.9998465776443481,
        -1.0,
        -0.999941885471344
      ],
      "type": "VEC3"
    },
    {
      "bufferView": 1,
      "componentType": 5126,
      "count": 1250,
      "max": [
        0.5584999918937683,
        0.9945999979972839
      ],
      "min": [
        0.4415000081062317,
        0.2467000037431717
      ],
      "type": "VEC2"
    },
    {
      "bufferView": 0,
      "componentType": 5125,
      "count": 7464,
      "type": "SCALAR"
    },
    {
      "bufferView": 2,
      "byteOffset": 30000,
      "componentType": 5126,
      "count": 72,
      "max": [
        18.89484977722168,
        1.6656299829483032,
        36.828208923339844
      ],
      "min": [
        -14.448749542236328,
        -0.5572500228881836,
        0.4281400144100189
      ],
      "type": "VEC3"
    },
    {
      "bufferView": 2,
      "byteOffset": 30864,
      "componentType": 5126,
      "count": 72,
      "max": [
        0.9923945069313049,
        0.9992803931236267,
        0.9975016713142395
      ],
      "min": [
        -0.7382833361625671,
        -0.9988188147544861,
        -0.9157741665840149
      ],
      "type": "VEC3"
    },
    {
      "bufferView": 1,
      "byteOffset": 10000,
      "componentType": 5126,
      "count": 72,
      "max": [
        1.0,
        1.0
      ],
      "min": [
        0.5045999884605408,
        0.0
      ],
      "type": "VEC2"
    },
    {
      "bufferView": 0,
      "byteOffset": 29856,
      "componentType": 5125,
      "count": 420,
      "type": "SCALAR"
    },
    {
      "bufferView": 2,
      "byteOffset": 31728,
      "componentType": 5126,
      "count": 75,
      "max": [
        18.89484977722168,
        1.6656299829483032,
        -0.31279999017715454
      ],
      "min": [
        -14.448749542236328,
        -0.5572500228881836,
        -36.71287155151367
      ],
      "type": "VEC3"
    },
    {
      "bufferView": 2,
      "byteOffset": 32628,
      "componentType": 5126,
      "count": 75,
      "max": [
        0.9923945069313049,
        0.9992803931236267,
        0.9157741665840149
      ],
      "min": [
        -0.9981687664985657,
        -0.9988188147544861,
        -0.9975016713142395
      ],
      "type": "VEC3"
    },
    {
      "bufferView": 1,
      "byteOffset": 10576,
      "componentType": 5126,
      "count": 75,
      "max": [
        0.49540001153945923,
        1.0
      ],
      "min": [
        0.0,
        0.0
      ],
      "type": "VEC2"
    },
    {
      "bufferView": 0,
      "byteOffset": 31536,
      "componentType": 5125,
      "count": 420,
      "type": "SCALAR"
    },
    {
      "bufferView": 3,
      "componentType": 5126,
      "count": 41,
      "max": [
        1.6666699647903442
      ],
      "min": [
        0.0
      ],
      "type": "SCALAR"
    },
    {
      "bufferView": 4,
      "componentType": 5126,
      "count": 41,
      "max": [
        -1.0729999542236328,
        0.0,
        8.309679985046387
      ],
      "min": [
        -1.0729999542236328,
        0.0,
        -1.1684999465942383
      ],
      "type": "VEC3"
    },
    {
      "bufferView": 3,
      "byteOffset": 164,
      "componentType": 5126,
      "count": 41,
      "max": [
        1.6666699647903442
      ],
      "min": [
        0.0
      ],
      "type": "SCALAR"
    },
    {
      "bufferView": 5,
      "componentType": 5126,
      "count": 41,
      "max": [
        0.7071099877357483,
        0.18029999732971191,
        0.0,
        0.7071099877357483
      ],
      "min": [
        0.6837300062179565,
        0.0,
        -0.18029999732971191,
        0.6837300062179565
      ],
      "type": "VEC4"
    },
    {
      "bufferView": 3,
      "byteOffset": 328,
      "componentType": 5126,
      "count": 41,
      "max": [
        1.6666699647903442
      ],
      "min": [
        0.0
      ],
      "type": "SCALAR"
    },
    {
      "bufferView": 5,
      "byteOffset": 656,
      "componentType": 5126,
      "count": 41,
      "max": [
        0.38798001408576965,
        0.0,
        0.0,
        0.9996899962425232
      ],
      "min": [
        -0.4331299960613251,
        0.0,
        0.0,
        0.9013299942016602
      ],
      "type": "VEC4"
    },
    {
      "bufferView": 3,
      "byteOffset": 492,
      "componentType": 5126,
      "count": 41,
      "max": [
        1.6666699647903442
      ],
      "min": [
        0.0
      ],
      "type": "SCALAR"
    },
    {
      "bufferView": 5,
      "byteOffset": 1312,
      "componentType": 5126,
      "count": 41,
      "max": [
        0.4493899941444397,
        0.0,
        0.0,
        0.9996100068092346
      ],
      "min": [
        -0.37384000420570374,
        0.0,
        0.0,
        0.893339991569519
      ],
      "type": "VEC4"
    }
  ],
  "animations": [
    {
      "channels": [
        {
          "sampler": 0,
          "target": {
            "node": 4,
            "path": "translation"
          }
        },
        {
          "sampler": 1,
          "target": {
            "node": 4,
            "path": "rotation"
          }
        },
        {
          "sampler": 2,
          "target": {
            "node": 6,
            "path": "rotation"
          }
        },
        {
          "sampler": 3,
          "target": {
            "node": 8,
            "path": "rotation"
          }
        }
      ],
      "name": "Take 01",
      "samplers": [
        {
          "input": 12,
          "interpolation": "LINEAR",
          "output": 13
        },
        {
          "input": 14,
          "interpolation": "LINEAR",
          "output": 15
        },
        {
          "input": 16,
          "interpolation": "LINEAR",
          "output": 17
        },
        {
          "input": 18,
          "interpolation": "LINEAR",
          "output": 19
        }
      ]
    }
  ],
  "asset": {
    "extras": {
      "author": "Erina eka syaharani (https://sketchfab.com/erinaekasyaharani)",
      "license": "CC-BY-4.0 (http://creativecommons.org/licenses/by/4.0/)",
      "source": "https://sketchfab.com/3d-models/butterfly-9e17d5737d564d2e92338c80c8324b78",
      "title": "Butterfly"
    },
    "generator": "Sketchfab-12.65.0",
    "version": "2.0"
  },
  "bufferViews": [
    {
      "buffer": 0,
      "byteLength": 33216,
      "name": "floatBufferViews",
      "target": 34963
    },
    {
      "buffer": 0,
      "byteLength": 11176,
      "byteOffset": 33216,
      "byteStride": 8,
      "name": "floatBufferViews",
      "target": 34962
    },
    {
      "buffer": 0,
      "byteLength": 33528,
      "byteOffset": 44392,
      "byteStride": 12,
      "name": "floatBufferViews",
      "target": 34962
    },
    {
      "buffer": 0,
      "byteLength": 656,
      "byteOffset": 77920,
      "name": "floatBufferViews"
    },
    {
      "buffer": 0,
      "byteLength": 492,
      "byteOffset": 78576,
      "byteStride": 12,
      "name": "floatBufferViews"
    },
    {
      "buffer": 0,
      "byteLength": 1968,
      "byteOffset": 79068,
      "byteStride": 16,
      "name": "floatBufferViews"
    }
  ],
  "buffers": [
    {
      "byteLength": 81036,
      "uri": "scene.bin"
    }
  ],
  "images": [
    {
      "uri": "textures/mat1_baseColor.jpeg"
    }
  ],
  "materials": [
    {
      "emissiveFactor": [
        1.0,
        1.0,
        1.0
      ],
      "emissiveTexture": {
        "index": 0
      },
      "name": "mat1",
      "pbrMetallicRoughness": {
        "baseColorTexture": {
          "index": 0
        },
        "metallicFactor": 0.37366615853658536,
        "roughnessFactor": 0.24828506097560976
      }
    }
  ],
  "meshes": [
    {
      "name": "obj1_0",
      "primitives": [
        {
          "attributes": {
            "NORMAL": 1,
            "POSITION": 0,
            "TEXCOORD_0": 2
          },
          "indices": 3,
          "material": 0,
          "mode": 4
        }
      ]
    },
    {
      "name": "obj2_0",
      "primitives": [
        {
          "attributes": {
            "NORMAL": 5,
            "POSITION": 4,
            "TEXCOORD_0": 6
          },
          "indices": 7,
          "material": 0,
          "mode": 4
        }
      ]
    },
    {
      "name": "obj3_0",
      "primitives": [
        {
          "attributes": {
            "NORMAL": 9,
            "POSITION": 8,
            "TEXCOORD_0": 10
          },
          "indices": 11,
          "material": 0,
          "mode": 4
        }
      ]
    }
  ],
  "nodes": [
    {
      "children": [
        1
      ],
      "matrix": [
        1.0,
        0.0,
        0.0,
        0.0,
        0.0,
        2.220446049250313e-16,
        -1.0,
        0.0,
        0.0,
        1.0,
        2.220446049250313e-16,
        0.0,
        0.0,
        0.0,
        0.0,
        1.0
      ],
      "name": "Sketchfab_model"
    },
    {
      "children": [
        2,
        4
      ],
      "name": "Root"
    },
    {
      "children": [
        3
      ],
      "matrix": [
        -0.29086000000000006,
        0.9551700000000001,
        -0.05519000000000001,
        0.0,
        -0.7711,
        -0.19988000000000003,
        0.6045200000000001,
        0.0,
        0.5663900000000001,
        0.21839000000000003,
        0.7946700000000001,
        0.0,
        4.076250000000001,
        1.00545,
        5.903860000000001,
        1.0
      ],
      "name": "Lamp"
    },
    {
      "name": "Lamp"
    },
    {
      "children": [
        5,
        6,
        8
      ],
      "name": "obj1",
      "rotation": [
        0.7071067690849304,
        0.0,
        0.0,
        0.7071067690849304
      ],
      "translation": [
        -1.0729999542236328,
        0.0,
        -1.1684999465942383
      ]
    },
    {
      "mesh": 0,
      "name": "obj1_0"
    },
    {
      "children": [
        7
      ],
      "name": "obj2",
      "rotation": [
        -0.43313056230545044,
        0.0,
        0.0,
        0.9013311862945557
      ],
      "translation": [
        -1.1500600576400757,
        3.763430118560791,
        -0.057670000940561295
      ]
    },
    {
      "mesh": 1,
      "name": "obj2_0"
    },
    {
      "children": [
        9
      ],
      "name": "obj3",
      "rotation": [
        0.4493882656097412,
        0.0,
        0.0,
        0.8933365941047668
      ],
      "translation": [
        -1.1500600576400757,
        3.763430118560791,
        -0.057670000940561295
      ]
    },
    {
      "mesh": 2,
      "name": "obj3_0"
    }
  ],
  "samplers": [
    {
      "magFilter": 9729,
      "minFilter": 9987,
      "wrapS": 10497,
      "wrapT": 10497
    }
  ],
  "scene": 0,
  "scenes": [
    {
      "name": "Sketchfab_Scene",
      "nodes": [
        0
      ]
    }
  ],
  "textures": [
    {
      "sampler": 0,
      "source": 0
    }
  ]
}
