{
  "accessors": [
    {
      "bufferView": 2,
      "componentType": 5126,
      "count": 908,
      "max": [
        8.126296997070313,
        9.231609344482422,
        10.735228538513184
      ],
      "min": [
        -8.126296997070313,
        -9.236620903015137,
        -0.8068100214004517
      ],
      "type": "VEC3"
    },
    {
      "bufferView": 2,
      "byteOffset": 10896,
      "componentType": 5126,
      "count": 908,
      "max": [
        0.9998301863670349,
        1.0,
        0.9998301863670349
      ],
      "min": [
        -0.9998301863670349,
        -1.0,
        -0.9998301863670349
      ],
      "type": "VEC3"
    },
    {
      "bufferView": 1,
      "componentType": 5126,
      "count": 908,
      "max": [
        0.9629740118980408,
        0.9262490272521973
      ],
      "min": [
        0.03181999921798706,
        0.03305799886584282
      ],
      "type": "VEC2"
    },
    {
      "bufferView": 0,
      "componentType": 5125,
      "count": 3216,
      "type": "SCALAR"
    },
    {
      "bufferView": 2,
      "byteOffset": 21792,
      "componentType": 5126,
      "count": 184,
      "max": [
        1.5355219841003418,
        -1.2972229719161987,
        1.5835959911346436
      ],
      "min": [
        -1.5355219841003418,
        -6.069180011749268,
        0.2578220069408417
      ],
      "type": "VEC3"
    },
    {
      "bufferView": 2,
      "byteOffset": 24000,
      "componentType": 5126,
      "count": 184,
      "max": [
        0.9928044676780701,
        0.8377628922462463,
        0.9967371821403503
      ],
      "min": [
        -0.9928044676780701,
        -0.8926723599433899,
        -0.9967630505561829
      ],
      "type": "VEC3"
    },
    {
      "bufferView": 1,
      "byteOffset": 7264,
      "componentType": 5126,
      "count": 184,
      "max": [
        0.875,
        1.0
      ],
      "min": [
        0.125,
        0.0
      ],
      "type": "VEC2"
    },
    {
      "bufferView": 0,
      "byteOffset": 12864,
      "componentType": 5125,
      "count": 456,
      "type": "SCALAR"
    },
    {
      "bufferView": 2,
      "byteOffset": 26208,
      "componentType": 5126,
      "count": 636,
      "max": [
        1.3541849851608276,
        2.8546969890594482,
        -0.26684001088142395
      ],
      "min": [
        -1.3541849851608276,
        -1.9322290420532227,
        -1.6360490322113037
      ],
      "type": "VEC3"
    },
    {
      "bufferView": 2,
      "byteOffset": 33840,
      "componentType": 5126,
      "count": 636,
      "max": [
        0.9763842225074768,
        0.9898075461387634,
        1.0
      ],
      "min": [
        -0.9763842225074768,
        -0.9999160170555115,
        -0.995807409286499
      ],
      "type": "VEC3"
    },
    {
      "bufferView": 1,
      "byteOffset": 8736,
      "componentType": 5126,
      "count": 636,
      "max": [
        1.0,
        1.0
      ],
      "min": [
        0.0,
        0.0
      ],
      "type": "VEC2"
    },
    {
      "bufferView": 0,
      "byteOffset": 14688,
      "componentType": 5125,
      "count": 1224,
      "type": "SCALAR"
    },
    {
      "bufferView": 2,
      "byteOffset": 41472,
      "componentType": 5126,
      "count": 158,
      "max": [
        0.5834230184555054,
        -0.8878480195999146,
        0.26802799105644226
      ],
      "min": [
        -0.5834230184555054,
        -1.4252400398254395,
        -0.26763901114463806
      ],
      "type": "VEC3"
    },
    {
      "bufferView": 2,
      "byteOffset": 43368,
      "componentType": 5126,
      "count": 158,
      "max": [
        0.9967907667160034,
        1.0,
        0.9967910051345825
      ],
      "min": [
        -0.9967907667160034,
        -1.0,
        -0.9967909455299377
      ],
      "type": "VEC3"
    },
    {
      "bufferView": 1,
      "byteOffset": 13824,
      "componentType": 5126,
      "count": 158,
      "max": [
        1.0,
        1.0
      ],
      "min": [
        0.0,
        0.0
      ],
      "type": "VEC2"
    },
    {
      "bufferView": 0,
      "byteOffset": 19584,
      "componentType": 5125,
      "count": 672,
      "type": "SCALAR"
    }
  ],
  "asset": {
    "extras": {
      "author": "neutralize (https://sketchfab.com/neutralize)",
      "license": "CC-BY-4.0 (http://creativecommons.org/licenses/by/4.0/)",
      "source": "https://sketchfab.com/3d-models/butterfly-18126e15667f47039555312e1c3897cf",
      "title": "Butterfly"
    },
    "generator": "Sketchfab-12.66.0",
    "version": "2.0"
  },
  "bufferViews": [
    {
      "buffer": 0,
      "byteLength": 22272,
      "name": "floatBufferViews",
      "target": 34963
    },
    {
      "buffer": 0,
      "byteLength": 15088,
      "byteOffset": 22272,
      "byteStride": 8,
      "name": "floatBufferViews",
      "target": 34962
    },
    {
      "buffer": 0,
      "byteLength": 45264,
      "byteOffset": 37360,
      "byteStride": 12,
      "name": "floatBufferViews",
      "target": 34962
    }
  ],
  "buffers": [
    {
      "byteLength": 82624,
      "uri": "scene.bin"
    }
  ],
  "images": [
    {
      "uri": "textures/lambert2SG_baseColor.png"
    }
  ],
  "materials": [
    {
      "doubleSided": true,
      "name": "lambert2SG",
      "pbrMetallicRoughness": {
        "baseColorTexture": {
          "index": 0
        },
        "metallicFactor": 0.0
      }
    },
    {
      "doubleSided": true,
      "name": "lambert3SG",
      "pbrMetallicRoughness": {
        "baseColorFactor": [
          0.03,
          0.01,
          0.01,
          1.0
        ],
        "metallicFactor": 0.0
      }
    },
    {
      "doubleSided": true,
      "name": "lambert4SG",
      "pbrMetallicRoughness": {
        "baseColorFactor": [
          0.02,
          0.02,
          0.02,
          1.0
        ],
        "metallicFactor": 0.0
      }
    },
    {
      "doubleSided": true,
      "name": "lambert5SG",
      "pbrMetallicRoughness": {
        "baseColorFactor": [
          0.07,
          0.07,
          0.07,
          1.0
        ],
        "metallicFactor": 0.0
      }
    }
  ],
  "meshes": [
    {
      "name": "Object_0",
      "primitives": [
        {
          "attributes": {
            "NORMAL": 1,
            "POSITION": 0,
            "TEXCOORD_0": 2
          },
          "indices": 3,
          "material": 0,
          "mode": 4
        }
      ]
    },
    {
      "name": "Object_1",
      "primitives": [
        {
          "attributes": {
            "NORMAL": 5,
            "POSITION": 4,
            "TEXCOORD_0": 6
          },
          "indices": 7,
          "material": 1,
          "mode": 4
        }
      ]
    },
    {
      "name": "Object_2",
      "primitives": [
        {
          "attributes": {
            "NORMAL": 9,
            "POSITION": 8,
            "TEXCOORD_0": 10
          },
          "indices": 11,
          "material": 2,
          "mode": 4
        }
      ]
    },
    {
      "name": "Object_3",
      "primitives": [
        {
          "attributes": {
            "NORMAL": 13,
            "POSITION": 12,
            "TEXCOORD_0": 14
          },
          "indices": 15,
          "material": 3,
          "mode": 4
        }
      ]
    }
  ],
  "nodes": [
    {
      "children": [
        1
      ],
      "matrix": [
        1.0,
        0.0,
        0.0,
        0.0,
        0.0,
        2.220446049250313e-16,
        -1.0,
        0.0,
        0.0,
        1.0,
        2.220446049250313e-16,
        0.0,
        0.0,
        0.0,
        0.0,
        1.0
      ],
      "name": "Sketchfab_model"
    },
    {
      "children": [
        2,
        3,
        4,
        5
      ],
      "name": "butterfly.obj.cleaner.materialmerger.gles"
    },
    {
      "mesh": 0,
      "name": "Object_2"
    },
    {
      "mesh": 1,
      "name": "Object_3"
    },
    {
      "mesh": 2,
      "name": "Object_4"
    },
    {
      "mesh": 3,
      "name": "Object_5"
    }
  ],
  "samplers": [
    {
      "magFilter": 9729,
      "minFilter": 9987,
      "wrapS": 10497,
      "wrapT": 10497
    }
  ],
  "scene": 0,
  "scenes": [
    {
      "name": "Sketchfab_Scene",
      "nodes": [
        0
      ]
    }
  ],
  "textures": [
    {
      "sampler": 0,
      "source": 0
    }
  ]
}
