{
  "accessors": [
    {
      "bufferView": 2,
      "componentType": 5126,
      "count": 3919,
      "max": [
        68.16600036621094,
        39.56700134277344,
        46.777000427246094
      ],
      "min": [
        -115.87899780273438,
        -39.56700134277344,
        -68.61199951171875
      ],
      "type": "VEC3"
    },
    {
      "bufferView": 2,
      "byteOffset": 47028,
      "componentType": 5126,
      "count": 3919,
      "max": [
        1.0,
        0.9996352195739746,
        0.9999516010284424
      ],
      "min": [
        -0.9999755620956421,
        -0.9996352195739746,
        -0.999987006187439
      ],
      "type": "VEC3"
    },
    {
      "bufferView": 1,
      "componentType": 5126,
      "count": 3919,
      "max": [
        0.8799999952316284,
        0.7419999837875366
      ],
      "min": [
        -0.07900000363588333,
        0.15199999511241913
      ],
      "type": "VEC2"
    },
    {
      "bufferView": 1,
      "byteOffset": 31352,
      "componentType": 5126,
      "count": 3919,
      "max": [
        0.8799999952316284,
        0.7419999837875366
      ],
      "min": [
        -0.07900000363588333,
        0.15199999511241913
      ],
      "type": "VEC2"
    },
    {
      "bufferView": 1,
      "byteOffset": 62704,
      "componentType": 5126,
      "count": 3919,
      "max": [
        0.8799999952316284,
        0.7419999837875366
      ],
      "min": [
        -0.07900000363588333,
        0.15199999511241913
      ],
      "type": "VEC2"
    },
    {
      "bufferView": 1,
      "byteOffset": 94056,
      "componentType": 5126,
      "count": 3919,
      "max": [
        0.8799999952316284,
        0.7419999837875366
      ],
      "min": [
        -0.07900000363588333,
        0.15199999511241913
      ],
      "type": "VEC2"
    },
    {
      "bufferView": 0,
      "componentType": 5125,
      "count": 18234,
      "type": "SCALAR"
    }
  ],
  "asset": {
    "extras": {
      "author": "Clement Abai (https://sketchfab.com/clement.abai)",
      "license": "CC-BY-4.0 (http://creativecommons.org/licenses/by/4.0/)",
      "source": "https://sketchfab.com/3d-models/common-lime-butterfly-1ae46d746599479b82890cb0b80afed4",
      "title": "Common Lime Butterfly"
    },
    "generator": "Sketchfab-12.68.0",
    "version": "2.0"
  },
  "bufferViews": [
    {
      "buffer": 0,
      "byteLength": 72936,
      "name": "floatBufferViews",
      "target": 34963
    },
    {
      "buffer": 0,
      "byteLength": 125408,
      "byteOffset": 72936,
      "byteStride": 8,
      "name": "floatBufferViews",
      "target": 34962
    },
    {
      "buffer": 0,
      "byteLength": 94056,
      "byteOffset": 198344,
      "byteStride": 12,
      "name": "floatBufferViews",
      "target": 34962
    }
  ],
  "buffers": [
    {
      "byteLength": 292400,
      "uri": "scene.bin"
    }
  ],
  "images": [
    {
      "uri": "textures/Textured_baseColor.jpeg"
    },
    {
      "uri": "textures/Textured_metallicRoughness.png"
    },
    {
      "uri": "textures/Textured_emissive.jpeg"
    }
  ],
  "materials": [
    {
      "doubleSided": true,
      "emissiveFactor": [
        0.34,
        0.34,
        0.34
      ],
      "emissiveTexture": {
        "index": 2
      },
      "name": "Textured",
      "pbrMetallicRoughness": {
        "baseColorTexture": {
          "index": 0
        },
        "metallicRoughnessTexture": {
          "index": 1
        }
      }
    }
  ],
  "meshes": [
    {
      "name": "Object_0",
      "primitives": [
        {
          "attributes": {
            "NORMAL": 1,
            "POSITION": 0,
            "TEXCOORD_0": 2,
            "TEXCOORD_1": 3,
            "TEXCOORD_2": 4,
            "TEXCOORD_3": 5
          },
          "indices": 6,
          "material": 0,
          "mode": 4
        }
      ]
    }
  ],
  "nodes": [
    {
      "children": [
        1
      ],
      "matrix": [
        1.0,
        0.0,
        0.0,
        0.0,
        0.0,
        2.220446049250313e-16,
        -1.0,
        0.0,
        0.0,
        1.0,
        2.220446049250313e-16,
        0.0,
        0.0,
        0.0,
        0.0,
        1.0
      ],
      "name": "Sketchfab_model"
    },
    {
      "children": [
        2
      ],
      "name": "root"
    },
    {
      "children": [
        3
      ],
      "matrix": [
        1.0,
        0.0,
        0.0,
        0.0,
        0.0,
        2.220446049250313e-16,
        1.0,
        0.0,
        0.0,
        -1.0,
        2.220446049250313e-16,
        0.0,
        0.0,
        0.0,
        0.0,
        1.0
      ],
      "name": "GLTF_SceneRootNode"
    },
    {
      "children": [
        4
      ],
      "matrix": [
        1.0,
        0.0,
        -0.0,
        0.0,
        -0.0,
        0.0,
        -1.0,
        0.0,
        0.0,
        1.0,
        0.0,
        0.0,
        0.0,
        0.0,
        0.0,
        1.0
      ],
      "name": "RootNode (gltf orientation matrix)_0"
    },
    {
      "children": [
        5
      ],
      "name": "RootNode (model correction matrix)_1"
    },
    {
      "children": [
        6
      ],
      "name": "model.obj.cleaner_2"
    },
    {
      "children": [
        7
      ],
      "name": "_3"
    },
    {
      "mesh": 0,
      "name": "Object_7"
    }
  ],
  "samplers": [
    {
      "magFilter": 9729,
      "minFilter": 9987,
      "wrapS": 10497,
      "wrapT": 10497
    }
  ],
  "scene": 0,
  "scenes": [
    {
      "name": "Sketchfab_Scene",
      "nodes": [
        0
      ]
    }
  ],
  "textures": [
    {
      "sampler": 0,
      "source": 0
    },
    {
      "sampler": 0,
      "source": 1
    },
    {
      "sampler": 0,
      "source": 2
    }
  ]
}
